#!OML:ASF E:\Steps\Project 1\Capture day 1\Session 2\Subject.ASF
:FULLY-SPECIFIED
:DEGREES
233
root 23.5254 16.0294 28.5978 -154.716 3.87777 175.941
lowerback -26.5583 -0.969887 -7.1207
upperback -0.301521 1.8031 -2.48264
thorax 14.5083 0.622623 1.95808
lowerneck -0.295196 0.174348 -4.41634
upperneck 7.62855 -0.696935 9.31171
head 2.58712 -0.398651 3.87193
rclavicle 2.78299e-015 -4.81059e-014
rhumerus -32.091 -10.8028 -84.5472
rradius 34.1353
rwrist -5.01535
rhand -8.37872 -55.3775
rfingers 7.12502
rthumb 17.5444 -84.6058
lclavicle 2.78299e-015 -4.81059e-014
lhumerus -31.56 10.9723 77.0929
lradius 19.2364
lwrist -8.87429
lhand -21.8969 -9.38843
lfingers 7.12502
lthumb 4.50837 20.5436
rfemur -13.1235 6.9067 20.7912
rtibia 9.11092
rfoot -27.3327 -7.62228
rtoes -34.5079
lfemur -55.2368 -7.10937 -16.9895
ltibia 28.697
lfoot -3.11982 3.29381
ltoes -28.3106
234
root 23.5246 16.0103 28.5194 -154.542 4.02946 175.911
lowerback -26.795 -0.955949 -7.21731
upperback -0.295743 1.88535 -2.50052
thorax 14.6392 0.650906 2.02727
lowerneck -0.298167 0.174405 -4.39323
upperneck 7.60166 -0.687863 9.26097
head 2.57695 -0.393297 3.84897
rclavicle -3.97569e-015 -9.93923e-015
rhumerus -31.9095 -10.4837 -84.7108
rradius 34.2018
rwrist -5.07759
rhand -8.62012 -54.8774
rfingers 7.12502
rthumb 17.3121 -84.1263
lclavicle -3.97569e-015 -9.93923e-015
lhumerus -31.5784 11.2293 76.961
lradius 19.1316
lwrist -8.74946
lhand -21.9187 -9.70327
lfingers 7.12502
lthumb 4.48728 20.2292
rfemur -13.002 6.63516 20.7057
rtibia 9.03447
rfoot -27.3079 -7.33843
rtoes -34.9847
lfemur -55.3813 -7.11465 -16.7507
ltibia 27.302
lfoot -3.00665 3.43774
ltoes -27.7801
235
root 23.5207 15.9989 28.433 -154.733 4.16186 175.989
lowerback -26.7597 -0.860055 -7.21733
upperback -0.186198 1.98852 -2.45608
thorax 14.7401 0.680518 2.11539
lowerneck -0.27652 0.181911 -4.46848
upperneck 7.58014 -0.667237 9.22969
head 2.56439 -0.384598 3.85243
rclavicle -4.27387e-015 -1.51076e-014
rhumerus -31.6647 -9.9759 -84.9124
rradius 34.6564
rwrist -4.80977
rhand -7.53776 -55.3502
rfingers 7.12502
rthumb 18.3536 -84.5043
lclavicle -4.27387e-015 -1.51076e-014
lhumerus -31.639 11.6105 76.8881
lradius 19.0212
lwrist -8.82291
lhand -21.8005 -9.50372
lfingers 7.12502
lthumb 4.60143 20.4263
rfemur -12.461 6.74276 20.7729
rtibia 9.07079
rfoot -27.4964 -7.17496
rtoes -34.6167
lfemur -54.9501 -7.12276 -16.4426
ltibia 25.7068
lfoot -2.87724 3.58223
ltoes -26.0992
236
root 23.5204 15.9815 28.3629 -154.573 4.12068 175.992
lowerback -26.7796 -0.838545 -7.2401
upperback -0.207208 2.03669 -2.49571
thorax 14.7232 0.70585 2.10169
lowerneck -0.236765 0.154335 -4.44122
upperneck 7.55236 -0.70041 9.1985
head 2.54957 -0.401577 3.83441
rclavicle 7.65321e-015 3.73715e-014
rhumerus -31.4595 -9.47932 -85.2473
rradius 34.8937
rwrist -4.6121
rhand -7.7408 -56.0639
rfingers 7.12502
rthumb 18.1582 -85.2363
lclavicle 7.65321e-015 3.73715e-014
lhumerus -31.6201 12.1427 76.5625
lradius 18.696
lwrist -9.33119
lhand -21.828 -9.9749
lfingers 7.12502
lthumb 4.57489 19.9557
rfemur -12.4412 6.72344 20.8103
rtibia 9.36143
rfoot -27.7469 -7.17989
rtoes -34.187
lfemur -55.1024 -7.11205 -16.2358
ltibia 24.4296
lfoot -2.83027 3.58673
ltoes -25.0645
237
root 23.5137 15.9695 28.2688 -154.854 4.54385 176.078
lowerback -26.6737 -0.586934 -7.1039
upperback -0.0719149 2.32596 -2.62301
thorax 14.8131 0.838407 1.98236
lowerneck -0.185199 0.116725 -4.33187
upperneck 7.50803 -0.750842 9.1677
head 2.52745 -0.42626 3.7997
rclavicle -1.98785e-016 1.07344e-014
rhumerus -31.2897 -8.94381 -85.6791
rradius 35.0423
rwrist -4.34157
rhand -8.12922 -55.6547
rfingers 7.12502
rthumb 17.7845 -84.8615
lclavicle -1.98785e-016 1.07344e-014
lhumerus -31.5219 12.9075 75.9632
lradius 18.1617
lwrist -9.78445
lhand -22.0576 -11.787
lfingers 7.12502
lthumb 4.35315 18.1483
rfemur -11.5845 6.79739 20.7541
rtibia 8.82863
rfoot -27.4817 -6.92288
rtoes -34.6724
lfemur -54.4162 -7.04234 -15.965
ltibia 22.7873
lfoot -3.03694 4.20363
ltoes -26.3163
238
root 23.512 15.9533 28.1921 -154.7 4.75647 176.051
lowerback -26.705 -0.560658 -7.19286
upperback -0.124096 2.40566 -2.67256
thorax 14.7613 0.876931 2.00758
lowerneck -0.0989975 0.0758283 -4.37549
upperneck 7.98233 -0.862832 9.08651
head 2.67926 -0.4923 3.78443
rclavicle 3.8763e-015 -6.75868e-015
rhumerus -31.0196 -8.65108 -85.8863
rradius 35.0709
rwrist -4.47159
rhand -8.0772 -55.7587
rfingers 7.12502
rthumb 17.8346 -84.9609
lclavicle 3.8763e-015 -6.75868e-015
lhumerus -31.6391 12.8072 75.9055
lradius 18.1906
lwrist -9.43848
lhand -22.3047 -11.2931
lfingers 7.12502
lthumb 4.11453 18.6469
rfemur -11.8108 7.29569 20.6943
rtibia 9.6517
rfoot -27.7829 -7.34215
rtoes -34.9935
lfemur -54.4467 -6.87205 -15.8579
ltibia 21.5222
lfoot -3.0709 4.41377
ltoes -27.2914
239
root 23.5096 15.9377 28.1072 -154.717 4.84055 176.047
lowerback -26.6589 -0.563917 -7.26581
upperback -0.091212 2.41564 -2.66437
thorax 14.7713 0.872597 2.061
lowerneck 0.324687 -0.236243 -4.62967
upperneck 8.55474 -1.35167 8.85282
head 2.83218 -0.767047 3.74683
rclavicle 3.97569e-016 6.36111e-015
rhumerus -30.7207 -8.19909 -86.0976
rradius 35.1989
rwrist -4.5448
rhand -8.14184 -56.3983
rfingers 7.12502
rthumb 17.7724 -85.6062
lclavicle 3.97569e-016 6.36111e-015
lhumerus -31.8004 13.1072 75.7296
lradius 18.1683
lwrist -9.4492
lhand -22.0011 -11.2555
lfingers 7.12502
lthumb 4.40775 18.6786
rfemur -11.5906 7.29357 20.7065
rtibia 10.0754
rfoot -27.8609 -7.43782
rtoes -35.168
lfemur -54.2494 -6.7814 -15.7712
ltibia 20.3448
lfoot -3.00934 4.51112
ltoes -27.4673
240
root 23.5055 15.9194 28.017 -154.728 5.04663 176.121
lowerback -26.6592 -0.475858 -7.27224
upperback -0.0639405 2.53222 -2.67576
thorax 14.7948 0.921116 2.09523
lowerneck -0.122186 0.24165 -4.70394
upperneck 8.58635 -0.70657 9.13668
head 2.88042 -0.429039 3.88154
rclavicle 1.07344e-014 -8.74653e-015
rhumerus -30.5271 -7.73008 -86.351
rradius 35.3383
rwrist -4.34226
rhand -8.58404 -55.7163
rfingers 7.12502
rthumb 17.3468 -84.9621
lclavicle 1.07344e-014 -8.74653e-015
lhumerus -31.8658 13.0568 75.6988
lradius 18.1165
lwrist -9.30548
lhand -22.0955 -10.9318
lfingers 7.12502
lthumb 4.31651 19.0042
rfemur -11.2984 6.85621 20.7106
rtibia 10.2715
rfoot -27.7945 -6.89064
rtoes -35.312
lfemur -54.0022 -6.58148 -15.6626
ltibia 19.2411
lfoot -2.99071 4.71824
ltoes -27.291
241
root 23.5006 15.8977 27.9286 -154.517 5.34245 176.117
lowerback -26.7731 -0.347818 -7.34367
upperback -0.170628 2.76851 -2.80381
thorax 14.7159 1.04161 2.0817
lowerneck 0.61713 -0.452535 -4.62348
upperneck 8.88288 -1.70131 8.75489
head 2.91485 -0.958856 3.70649
rclavicle 1.39149e-015 -1.19271e-015
rhumerus -30.4716 -7.83712 -86.4471
rradius 35.4809
rwrist -4.85879
rhand -7.9829 -56.0413
rfingers 7.12502
rthumb 17.9253 -85.2352
lclavicle 1.39149e-015 -1.19271e-015
lhumerus -31.9711 12.4785 75.7274
lradius 18.1195
lwrist -9.00706
lhand -22.2037 -10.284
lfingers 7.12502
lthumb 4.21203 19.6541
rfemur -11.349 7.13122 20.5872
rtibia 10.6099
rfoot -27.8869 -6.9315
rtoes -35.7532
lfemur -54.0173 -6.39784 -15.6094
ltibia 18.222
lfoot -2.89155 5.00617
ltoes -27.6959
242
root 23.4982 15.8845 27.8418 -154.462 5.4978 176.112
lowerback -26.6467 -0.233021 -7.35906
upperback -0.241527 2.94496 -2.96217
thorax 14.5557 1.14153 1.97201
lowerneck 0.850473 -0.56952 -4.56578
upperneck 9.19473 -1.93832 8.8389
head 2.99719 -1.09072 3.72366
rclavicle 2.10712e-014 -4.53229e-014
rhumerus -30.3927 -7.82506 -86.7297
rradius 35.5944
rwrist -4.86251
rhand -7.76794 -56.3596
rfingers 7.12502
rthumb 18.1321 -85.5344
lclavicle 2.10712e-014 -4.53229e-014
lhumerus -32.0665 12.4256 75.426
lradius 17.8467
lwrist -9.32212
lhand -22.2874 -11.0427
lfingers 7.12502
lthumb 4.13121 18.897
rfemur -11.139 7.63692 20.562
rtibia 10.7533
rfoot -27.826 -7.30364
rtoes -35.82
lfemur -53.8508 -6.27632 -15.602
ltibia 17.2254
lfoot -2.81333 5.14846
ltoes -29.253
